# xmcd CD database file
#
# Track frame offsets:
#	150
#	18151
#	47353
#	85920
#	115643
#	161053
#	199977
#	213321
#	230938
#	256833
#	280963
#	318074
#
# Disc length: 4390 seconds
#
# Revision: 0
# Processed by: cddbd v1.5PL3 Copyright (c) Steve Scherf et al.
# Submitted via: CDex 1.51
#
DISCID=9c11240c
DTITLE=Barbara Dennerlein - Barbara Dennerlein and Friends
DYEAR=1900
DGENRE=Jazz
TTITLE0=Fly Away
TTITLE1=Give it up
TTITLE2=Andres Mood
TTITLE3=Sweet Position
TTITLE4=Take off
TTITLE5=Nightowls
TTITLE6=Jammin
TTITLE7=Bo Peep
TTITLE8=Hot House
TTITLE9=Walk on air
TTITLE10=Cal Tjader/ Sixtenth Track
TTITLE11=Cal Tjader/ Soul Sauce
EXTD=
EXTT0=
EXTT1=
EXTT2=
EXTT3=
EXTT4=
EXTT5=
EXTT6=
EXTT7=
EXTT8=
EXTT9=
EXTT10=
EXTT11=
PLAYORDER=
